<svg xmlns="http://www.w3.org/2000/svg" xmlns:xlink="http://www.w3.org/1999/xlink" xmlns:lucid="lucid" width="3360" height="1780"><g transform="translate(-160 -380)" lucid:page-tab-id="0_0"><path d="M500 400h2800v1740H500z" stroke="#232f3e" stroke-width="2" fill="#fff" fill-opacity="0"/><path d="M500 400h56v56h-56v-56z" stroke="#fff" stroke-opacity="0" fill="#232f3e"/><path d="M540.88 441.22h-25c-4.13.05-7.57-3.1-7.9-7.2v-.64c-.15-3.4 1.97-6.38 5.25-7.36v-.66c.12-4.22 2.44-7.75 6.24-9.57 4.12-1.86 8.73-.96 11.8 2.3 1.1 1.1 1.85 2.2 2.45 3.6 1.2-1 2.72-1.32 4.24-.9 2.24.8 3.68 2.74 3.76 5.1 3.68.65 6.32 3.8 6.28 7.56 0 7.07-7.04 7.73-7.12 7.76zm-26.7-13.88c-2.83.6-4.75 3.14-4.6 6.04v.53c.3 3.33 3.1 5.84 6.4 5.76h24.98c3.04-.3 5.4-2.64 5.68-5.7.28-3.43-2.24-6.5-5.68-6.78-.44-.05-.72-.44-.64-.87.08-1.83-1-3.44-2.72-4.13-1.32-.37-2.64.13-3.44 1.24-.2.25-.44.38-.76.33-.28-.05-.48-.24-.6-.5-.6-1.6-1.4-2.85-2.6-4.04-2.68-2.8-6.6-3.6-10.13-2-3.24 1.6-5.2 4.63-5.32 8.24-.04.4-.04.74 0 1.14.04.4-.2.76-.6.84z" stroke="#fff" stroke-opacity="0" fill="#fff"/><use xlink:href="#a" transform="matrix(1,0,0,1,571,420) translate(0 14.4)"/><use xlink:href="#b" transform="matrix(1,0,0,1,571,420) translate(45.3 14.4)"/><path d="M740 480h2480v1580H740z" stroke="#248814" stroke-width="2" fill="#fff" fill-opacity="0"/><path d="M740 480h56v56h-56v-56z" stroke="#fff" stroke-opacity="0" fill="#248814"/><path d="M771.76 508.3h-1.18v-1.1c-.12-1.73-1.48-3.07-3.2-3.2-1.9-.13-3.54 1.3-3.67 3.2v1.07h-1.17c-.44 0-.8.36-.8.8v6.13c0 .44.36.8.8.8h9.23c.44 0 .8-.36.8-.8v-6.1c0-.44-.36-.8-.8-.8zm-6.4-1.06c.1-1.02 1-1.77 2-1.67.9.08 1.58.77 1.67 1.67v1.06h-3.72zm5.65 7.08h-7.67v-4.42h7.63z" stroke="#fff" stroke-opacity="0" fill="#fff"/><path d="M782.27 505.74c-.08-2.44-1.58-4.47-3.87-5.3-1.58-.46-3.16-.13-4.4.9-.68-1.44-1.47-2.6-2.6-3.75-3.24-3.36-7.94-4.3-12.18-2.4-4.04 1.9-6.4 5.63-6.54 10.05v.7c-3.4.98-5.66 4.08-5.5 7.65v.63c.4 4.28 3.92 7.52 8.2 7.47h26s7.42-.63 7.42-8.1c.04-3.9-2.66-7.2-6.53-7.86zm-.96 14.4h-25.9c-3.47.05-6.3-2.53-6.6-5.97v-.52c-.15-3.05 1.93-5.7 4.92-6.3.38-.12.63-.48.6-.9-.06-.4-.06-.73 0-1.14.07-3.78 2.1-6.94 5.52-8.6 1.25-.56 2.4-.8 3.83-.84 2.62.08 4.87 1.04 6.7 2.94 1.25 1.3 2.04 2.6 2.62 4.3.03.15.1.28.24.37.37.27.87.2 1.12-.17.83-1.18 2.25-1.67 3.62-1.3 1.8.72 2.87 2.4 2.83 4.32-.07.4.22.82.64.9 3.57.36 6.2 3.55 5.82 7.12-.3 3.13-2.7 5.52-5.82 5.85z" stroke="#fff" stroke-opacity="0" fill="#fff"/><use xlink:href="#c" transform="matrix(1,0,0,1,811,500) translate(0 14.4)"/><use xlink:href="#d" transform="matrix(1,0,0,1,811,500) translate(55.5 14.4)"/><use xlink:href="#e" transform="matrix(1,0,0,1,811,500) translate(116.4 14.4)"/><path d="M900 590c0-16.57 13.43-30 30-30h2160c16.57 0 30 13.43 30 30v600c0 16.57-13.43 30-30 30H930c-16.57 0-30-13.43-30-30z" fill-opacity="0"/><path d="M915.04 564.1l3.17-1.7 4.72-1.56 4.93-.76L930 560h15m15 0h30m15 0h30m15 0h30m15 0h30m15 0h30m15 0h30m15 0h30m15 0h30m15 0h30m15 0h30m15 0h30m15 0h30m15 0h30m15 0h30m15 0h30m15 0h30m15 0h30m15 0h30m15 0h30m15 0h30m15 0h30m15 0h30m15 0h30m15 0h30m15 0h30m15 0h30m15 0h30m15 0h30m15 0h30m15 0h30m15 0h30m15 0h30m15 0h30m15 0h30m15 0h30m15 0h30m15 0h30m15 0h30m15 0h30m15 0h30m15 0h30m15 0h30m15 0h30m15 0h30m15 0h30m15 0h30m15 0h30m15 0h15l5 .42 4.82 1.22 4.54 2 .6.42m10.95 10.98l1.7 3.17 1.56 4.72.76 4.93.08 2.15v15.38m0 15.4v30.76m0 15.38v30.77m0 15.38v30.77m0 15.38V790m0 15.38v30.77m0 15.4v30.76m0 15.4v30.76m0 15.4v30.76m0 15.38v30.77m0 15.38v30.77m0 15.4v30.76m0 15.38v30.77m0 15.4V1190l-.42 5-1.22 4.82-2 4.54-.42.6m-10.98 10.95l-3.17 1.7-4.72 1.56-4.93.76-2.15.08h-15m-15 0h-30m-15 0h-30m-15 0h-30m-15 0h-30m-15 0h-30m-15 0h-30m-15 0h-30m-15 0h-30m-15 0h-30m-15 0h-30m-15 0h-30m-15 0h-30m-15 0h-30m-15 0h-30m-15 0h-30m-15 0h-30m-15 0h-30m-15 0h-30m-15 0h-30m-15 0h-30m-15 0h-30m-15 0h-30m-15 0h-30m-15 0h-30m-15 0h-30m-15 0h-30m-15 0h-30m-15 0h-30m-15 0h-30m-15 0h-30m-15 0h-30m-15 0h-30m-15 0h-30m-15 0h-30m-15 0h-30m-15 0h-30m-15 0h-30m-15 0h-30m-15 0h-30m-15 0h-30m-15 0h-30m-15 0h-30m-15 0h-30m-15 0h-30m-15 0h-30m-15 0h-30m-15 0h-30m-15 0h-15l-5-.42-4.82-1.22-4.54-2-.6-.42m-10.95-10.98l-1.7-3.17-1.56-4.72-.76-4.93-.08-2.15v-15.38m0-15.4v-30.76m0-15.38v-30.77m0-15.38v-30.77m0-15.38V990m0-15.38v-30.77m0-15.4V897.7m0-15.4v-30.76m0-15.4V805.4m0-15.38v-30.77m0-15.38v-30.77m0-15.4v-30.76m0-15.38v-30.77m0-15.4V590l.42-5 1.22-4.82 2-4.54.42-.6" stroke="#f7981f" stroke-width="3" fill="none"/><use xlink:href="#f" transform="matrix(1,0,0,1,900,1190) translate(1037.325 12.799999999999999)"/><use xlink:href="#g" transform="matrix(1,0,0,1,900,1190) translate(1126.7250000000001 12.799999999999999)"/><use xlink:href="#h" transform="matrix(1,0,0,1,900,1190) translate(1172.6750000000002 12.799999999999999)"/><path d="M900 1410c0-16.57 13.43-30 30-30h2160c16.57 0 30 13.43 30 30v600c0 16.57-13.43 30-30 30H930c-16.57 0-30-13.43-30-30z" fill-opacity="0"/><path d="M915.04 1384.1l3.17-1.7 4.72-1.56 4.93-.76 2.15-.08h15m15 0h30m15 0h30m15 0h30m15 0h30m15 0h30m15 0h30m15 0h30m15 0h30m15 0h30m15 0h30m15 0h30m15 0h30m15 0h30m15 0h30m15 0h30m15 0h30m15 0h30m15 0h30m15 0h30m15 0h30m15 0h30m15 0h30m15 0h30m15 0h30m15 0h30m15 0h30m15 0h30m15 0h30m15 0h30m15 0h30m15 0h30m15 0h30m15 0h30m15 0h30m15 0h30m15 0h30m15 0h30m15 0h30m15 0h30m15 0h30m15 0h30m15 0h30m15 0h30m15 0h30m15 0h30m15 0h30m15 0h30m15 0h15l5 .42 4.82 1.22 4.54 2 .6.42m10.95 10.98l1.7 3.17 1.56 4.72.76 4.93.08 2.15v15.38m0 15.4v30.76m0 15.38v30.77m0 15.38v30.77m0 15.38V1610m0 15.38v30.77m0 15.4v30.76m0 15.4v30.76m0 15.4v30.76m0 15.38v30.77m0 15.38v30.77m0 15.4v30.76m0 15.38v30.77m0 15.4V2010l-.42 5-1.22 4.82-2 4.54-.42.6m-10.98 10.95l-3.17 1.7-4.72 1.56-4.93.76-2.15.08h-15m-15 0h-30m-15 0h-30m-15 0h-30m-15 0h-30m-15 0h-30m-15 0h-30m-15 0h-30m-15 0h-30m-15 0h-30m-15 0h-30m-15 0h-30m-15 0h-30m-15 0h-30m-15 0h-30m-15 0h-30m-15 0h-30m-15 0h-30m-15 0h-30m-15 0h-30m-15 0h-30m-15 0h-30m-15 0h-30m-15 0h-30m-15 0h-30m-15 0h-30m-15 0h-30m-15 0h-30m-15 0h-30m-15 0h-30m-15 0h-30m-15 0h-30m-15 0h-30m-15 0h-30m-15 0h-30m-15 0h-30m-15 0h-30m-15 0h-30m-15 0h-30m-15 0h-30m-15 0h-30m-15 0h-30m-15 0h-30m-15 0h-30m-15 0h-30m-15 0h-30m-15 0h-30m-15 0h-30m-15 0h-15l-5-.42-4.82-1.22-4.54-2-.6-.42m-10.95-10.98l-1.7-3.17-1.56-4.72-.76-4.93-.08-2.15v-15.38m0-15.4v-30.76m0-15.38v-30.77m0-15.38v-30.77m0-15.38V1810m0-15.38v-30.77m0-15.4v-30.76m0-15.4v-30.76m0-15.4v-30.76m0-15.38v-30.77m0-15.38v-30.77m0-15.4v-30.76m0-15.38v-30.77m0-15.4V1410l.42-5 1.22-4.82 2-4.54.42-.6" stroke="#f7981f" stroke-width="3" fill="none"/><use xlink:href="#f" transform="matrix(1,0,0,1,900,2010) translate(1037.325 12.799999999999999)"/><use xlink:href="#g" transform="matrix(1,0,0,1,900,2010) translate(1126.7250000000001 12.799999999999999)"/><use xlink:href="#i" transform="matrix(1,0,0,1,900,2010) translate(1172.6750000000002 12.799999999999999)"/><path d="M1080 1440h600v540h-600z" fill="#248814" fill-opacity=".13"/><path d="M1080 1440h56v56h-56v-56z" stroke="#fff" stroke-opacity="0" fill="#248814"/><path d="M1123.38 1462.18c-.15-.17-.34-.25-.56-.25h-5.15v-5.58c-.03-2.54-.96-4.7-2.84-6.4-1.9-1.84-4.15-2.75-6.77-2.75-2.65 0-4.9.83-6.8 2.62-1.9 1.7-2.87 3.87-2.9 6.4v5.66h-5.15c-.24 0-.43.1-.58.25-.16.17-.22.34-.22.6V1488c0 .43.34.8.8.8h29.6c.46 0 .8-.37.8-.8v-25.28c0-.2-.06-.38-.22-.54zm-23.46-5.9c.03-2.13.8-3.88 2.37-5.3 1.6-1.5 3.52-2.2 5.73-2.2 2.22 0 4.12.75 5.7 2.25 1.54 1.4 2.32 3.2 2.32 5.32v5.58h-16.16zm22.1 30.94h-28.03v-23.7h28z" stroke="#fff" stroke-opacity="0" fill="#fff"/><path d="M1107.2 1477.3v6.25h1.6v-6.23c2.13-.4 3.62-2.2 3.63-4.35 0-2.43-1.97-4.4-4.4-4.43-2.2-.03-4.06 1.5-4.44 3.68-.42 2.4 1.2 4.68 3.6 5.1zm.82-7.15c.78 0 1.44.27 2 .82.54.56.82 1.22.8 2 .03 1.55-1.2 2.8-2.74 2.82h-.06c-1.56.1-2.92-1.06-3.04-2.62-.12-1.56 1.05-2.93 2.6-3.03.16-.02.28-.02.44 0z" stroke="#fff" stroke-opacity="0" fill="#fff"/><use xlink:href="#j" transform="matrix(1,0,0,1,1151,1460) translate(0 14.4)"/><use xlink:href="#k" transform="matrix(1,0,0,1,1151,1460) translate(53.900000000000006 14.4)"/><use xlink:href="#l" transform="matrix(1,0,0,1,1151,1460) translate(115.9 14.4)"/><path d="M1080 610h600v540h-600z" fill="#248814" fill-opacity=".13"/><path d="M1080 610h56v56h-56v-56z" stroke="#fff" stroke-opacity="0" fill="#248814"/><path d="M1123.38 632.18c-.15-.17-.34-.25-.56-.25h-5.15v-5.58c-.03-2.54-.96-4.7-2.84-6.4-1.9-1.84-4.15-2.75-6.77-2.75-2.65 0-4.9.83-6.8 2.62-1.9 1.7-2.87 3.87-2.9 6.4v5.66h-5.15c-.24 0-.43.1-.58.25-.16.17-.22.34-.22.6V658c0 .43.34.8.8.8h29.6c.46 0 .8-.37.8-.8v-25.28c0-.2-.06-.38-.22-.54zm-23.46-5.9c.03-2.13.8-3.88 2.37-5.3 1.6-1.5 3.52-2.2 5.73-2.2 2.22 0 4.12.75 5.7 2.25 1.54 1.4 2.32 3.2 2.32 5.32v5.58h-16.16zm22.1 30.94h-28.03v-23.7h28z" stroke="#fff" stroke-opacity="0" fill="#fff"/><path d="M1107.2 647.3v6.25h1.6v-6.23c2.13-.4 3.62-2.2 3.63-4.35 0-2.43-1.97-4.4-4.4-4.43-2.2-.03-4.06 1.5-4.44 3.68-.42 2.4 1.2 4.68 3.6 5.1zm.82-7.15c.78 0 1.44.27 2 .82.54.56.82 1.22.8 2 .03 1.55-1.2 2.8-2.74 2.82h-.06c-1.56.1-2.92-1.06-3.04-2.62-.12-1.56 1.05-2.93 2.6-3.03.16-.02.28-.02.44 0z" stroke="#fff" stroke-opacity="0" fill="#fff"/><use xlink:href="#j" transform="matrix(1,0,0,1,1151,630) translate(0 14.4)"/><use xlink:href="#k" transform="matrix(1,0,0,1,1151,630) translate(53.900000000000006 14.4)"/><use xlink:href="#m" transform="matrix(1,0,0,1,1151,630) translate(115.9 14.4)"/><path d="M1940 1430h1100v560H1940z" fill="#147eba" fill-opacity=".13"/><path d="M1940 1430h56v56h-56v-56z" stroke="#fff" stroke-opacity="0" fill="#147eba"/><path d="M1983.38 1452.18c-.15-.17-.34-.25-.56-.25h-5.15v-5.58c-.03-2.54-.96-4.7-2.84-6.4-1.9-1.84-4.15-2.75-6.77-2.75-2.65 0-4.9.83-6.8 2.62-1.9 1.7-2.87 3.87-2.9 6.4v5.66h-5.15c-.24 0-.43.1-.58.25-.16.17-.22.34-.22.6V1478c0 .43.34.8.8.8h29.6c.46 0 .8-.37.8-.8v-25.28c0-.2-.06-.38-.22-.54zm-23.46-5.9c.03-2.13.8-3.88 2.37-5.3 1.6-1.5 3.52-2.2 5.73-2.2 2.22 0 4.12.75 5.7 2.25 1.54 1.4 2.32 3.2 2.32 5.32v5.58h-16.16zm22.1 30.94h-28.03v-23.7h28z" stroke="#fff" stroke-opacity="0" fill="#fff"/><path d="M1967.2 1467.3v6.25h1.6v-6.23c2.13-.4 3.62-2.2 3.63-4.35 0-2.43-1.97-4.4-4.4-4.43-2.2-.03-4.06 1.5-4.44 3.68-.42 2.4 1.2 4.68 3.6 5.1zm.82-7.15c.78 0 1.44.27 2 .82.54.56.82 1.22.8 2 .03 1.55-1.2 2.8-2.74 2.82h-.06c-1.56.1-2.92-1.06-3.04-2.62-.12-1.56 1.05-2.93 2.6-3.03.16-.02.28-.02.44 0z" stroke="#fff" stroke-opacity="0" fill="#fff"/><use xlink:href="#n" transform="matrix(1,0,0,1,2011,1450) translate(0 14.4)"/><use xlink:href="#o" transform="matrix(1,0,0,1,2011,1450) translate(60.9 14.4)"/><use xlink:href="#p" transform="matrix(1,0,0,1,2011,1450) translate(122.9 14.4)"/><path d="M1940 610h1100v560H1940z" fill="#147eba" fill-opacity=".13"/><path d="M1940 610h56v56h-56v-56z" stroke="#fff" stroke-opacity="0" fill="#147eba"/><path d="M1983.38 632.18c-.15-.17-.34-.25-.56-.25h-5.15v-5.58c-.03-2.54-.96-4.7-2.84-6.4-1.9-1.84-4.15-2.75-6.77-2.75-2.65 0-4.9.83-6.8 2.62-1.9 1.7-2.87 3.87-2.9 6.4v5.66h-5.15c-.24 0-.43.1-.58.25-.16.17-.22.34-.22.6V658c0 .43.34.8.8.8h29.6c.46 0 .8-.37.8-.8v-25.28c0-.2-.06-.38-.22-.54zm-23.46-5.9c.03-2.13.8-3.88 2.37-5.3 1.6-1.5 3.52-2.2 5.73-2.2 2.22 0 4.12.75 5.7 2.25 1.54 1.4 2.32 3.2 2.32 5.32v5.58h-16.16zm22.1 30.94h-28.03v-23.7h28z" stroke="#fff" stroke-opacity="0" fill="#fff"/><path d="M1967.2 647.3v6.25h1.6v-6.23c2.13-.4 3.62-2.2 3.63-4.35 0-2.43-1.97-4.4-4.4-4.43-2.2-.03-4.06 1.5-4.44 3.68-.42 2.4 1.2 4.68 3.6 5.1zm.82-7.15c.78 0 1.44.27 2 .82.54.56.82 1.22.8 2 .03 1.55-1.2 2.8-2.74 2.82h-.06c-1.56.1-2.92-1.06-3.04-2.62-.12-1.56 1.05-2.93 2.6-3.03.16-.02.28-.02.44 0z" stroke="#fff" stroke-opacity="0" fill="#fff"/><use xlink:href="#n" transform="matrix(1,0,0,1,2011,630) translate(0 14.4)"/><use xlink:href="#o" transform="matrix(1,0,0,1,2011,630) translate(60.9 14.4)"/><use xlink:href="#p" transform="matrix(1,0,0,1,2011,630) translate(122.9 14.4)"/><path d="M2550.96 648.94h118.08c30.96 0 30.96 0 30.96 32.86v125.32c0 32.86 0 32.86-30.96 32.86h-118.08c-30.96 0-30.96 0-30.96-32.86V681.8c0-32.86 0-32.86 30.96-32.86z" fill="#9d5025"/><path d="M2550.96 640h118.08c30.96 0 30.96 0 30.96 32.86v125.32c0 32.86 0 32.86-30.96 32.86h-118.08c-30.96 0-30.96 0-30.96-32.86V672.86c0-32.86 0-32.86 30.96-32.86z" fill="#f58536"/><use xlink:href="#q" transform="matrix(1,0,0,1,2520,840) translate(12.125 14.4)"/><use xlink:href="#r" transform="matrix(1,0,0,1,2520,840) translate(102.97500000000001 14.4)"/><use xlink:href="#h" transform="matrix(1,0,0,1,2520,840) translate(157.875 14.4)"/><path d="M2550.96 938.94h118.08c30.96 0 30.96 0 30.96 32.86v125.32c0 32.86 0 32.86-30.96 32.86h-118.08c-30.96 0-30.96 0-30.96-32.86V971.8c0-32.86 0-32.86 30.96-32.86z" fill="#9d5025"/><path d="M2550.96 930h118.08c30.96 0 30.96 0 30.96 32.86v125.32c0 32.86 0 32.86-30.96 32.86h-118.08c-30.96 0-30.96 0-30.96-32.86V962.86c0-32.86 0-32.86 30.96-32.86z" fill="#f58536"/><use xlink:href="#q" transform="matrix(1,0,0,1,2520,1130) translate(12.125 14.4)"/><use xlink:href="#r" transform="matrix(1,0,0,1,2520,1130) translate(102.97500000000001 14.4)"/><use xlink:href="#i" transform="matrix(1,0,0,1,2520,1130) translate(157.875 14.4)"/><path d="M2550.96 1488.94h118.08c30.96 0 30.96 0 30.96 32.86v125.32c0 32.86 0 32.86-30.96 32.86h-118.08c-30.96 0-30.96 0-30.96-32.86V1521.8c0-32.86 0-32.86 30.96-32.86z" fill="#9d5025"/><path d="M2550.96 1480h118.08c30.96 0 30.96 0 30.96 32.86v125.32c0 32.86 0 32.86-30.96 32.86h-118.08c-30.96 0-30.96 0-30.96-32.86v-125.32c0-32.86 0-32.86 30.96-32.86z" fill="#f58536"/><use xlink:href="#q" transform="matrix(1,0,0,1,2520,1680) translate(12.125 14.4)"/><use xlink:href="#r" transform="matrix(1,0,0,1,2520,1680) translate(102.97500000000001 14.4)"/><use xlink:href="#s" transform="matrix(1,0,0,1,2520,1680) translate(157.875 14.4)"/><path d="M2550.96 1768.94h118.08c30.96 0 30.96 0 30.96 32.86v125.32c0 32.86 0 32.86-30.96 32.86h-118.08c-30.96 0-30.96 0-30.96-32.86V1801.8c0-32.86 0-32.86 30.96-32.86z" fill="#9d5025"/><path d="M2550.96 1760h118.08c30.96 0 30.96 0 30.96 32.86v125.32c0 32.86 0 32.86-30.96 32.86h-118.08c-30.96 0-30.96 0-30.96-32.86v-125.32c0-32.86 0-32.86 30.96-32.86z" fill="#f58536"/><use xlink:href="#q" transform="matrix(1,0,0,1,2520,1960) translate(12.125 14.4)"/><use xlink:href="#r" transform="matrix(1,0,0,1,2520,1960) translate(102.97500000000001 14.4)"/><use xlink:href="#t" transform="matrix(1,0,0,1,2520,1960) translate(157.875 14.4)"/><path d="M2320 610c0-16.57 13.43-30 30-30h500c16.57 0 30 13.43 30 30v1383.2c0 16.57-13.43 30-30 30h-500c-16.57 0-30-13.43-30-30z" fill-opacity="0"/><path d="M2328.1 589.67l1.5-1.64m9.46-5.9l3.86-1.3 4.93-.75 2.15-.08h14.88m14.88 0h2.98m14.88 0h29.76m14.88 0h2.98m14.88 0h29.76m14.88 0h2.98m14.88 0h29.76m14.88 0h2.98m14.88 0h29.76m14.88 0h2.98m14.88 0h29.76m14.88 0h2.98m14.88 0h29.76m14.88 0h2.98m14.88 0h29.76m14.88 0h2.98m14.88 0H2850l5 .42 4.82 1.22 1.1.5m9.4 5.95l1.65 1.5m5.9 9.46l1.3 3.86.75 4.93.08 2.15v14.97m0 14.97v3m0 14.96v29.94m0 14.97v3m0 14.98v29.94m0 14.96v3m0 14.97v29.94m0 14.96v3m0 14.96v29.94m0 14.97v3m0 14.96v29.93m0 14.97v3m0 14.97v29.94m0 14.98v3m0 14.96v29.94m0 14.97v3m0 14.96v29.95m0 14.97v3m0 14.96v29.94m0 14.97v3m0 14.96v29.94m0 14.97v3m0 14.96v29.94m0 14.97v3m0 14.96v29.94m0 14.97v3m0 14.98v29.94m0 14.96v3m0 14.97v29.94m0 14.96v3m0 14.96v29.94m0 14.97v3m0 14.96v29.93m0 14.97v3m0 14.97v29.94m0 14.98v3m0 14.96v29.94m0 14.97v3m0 14.96v29.95m0 14.97v3m0 14.96v29.94m0 14.97v3m0 14.96v29.94m0 14.97v3m0 14.96v14.97l-.42 5-1.22 4.82-.5 1.1m-5.95 9.4l-1.5 1.65m-9.46 5.9l-3.86 1.3-4.93.75-2.15.08h-14.88m-14.88 0h-2.98m-14.88 0h-29.76m-14.88 0h-2.98m-14.88 0h-29.76m-14.88 0h-2.98m-14.88 0h-29.76m-14.88 0h-2.98m-14.88 0h-29.76m-14.88 0h-2.98m-14.88 0h-29.76m-14.88 0h-2.98m-14.88 0h-29.76m-14.88 0h-2.98m-14.88 0h-29.76m-14.88 0h-2.98m-14.88 0H2350l-5-.42-4.82-1.22-1.1-.5m-9.4-5.95l-1.65-1.5m-5.9-9.46l-1.3-3.86-.75-4.93-.08-2.15v-14.97m0-14.97v-3m0-14.96v-29.94m0-14.97v-3m0-14.98v-29.94m0-14.96v-3m0-14.97v-29.94m0-14.96v-3m0-14.96v-29.94m0-14.97v-3m0-14.96v-29.93m0-14.97v-3m0-14.97V1601m0-14.98v-3m0-14.96v-29.94m0-14.97v-3m0-14.96v-29.95m0-14.97v-3m0-14.96v-29.94m0-14.97v-3m0-14.96v-29.94m0-14.97v-3m0-14.96v-29.94m0-14.97v-3m0-14.96v-29.94m0-14.97v-3m0-14.98v-29.94m0-14.96v-3m0-14.97V1098m0-14.96v-3m0-14.96v-29.94m0-14.97v-3m0-14.96v-29.93m0-14.97v-3m0-14.97V909.4m0-14.98v-3m0-14.96v-29.94m0-14.97v-3m0-14.96v-29.95m0-14.97v-3m0-14.96v-29.94m0-14.97v-3m0-14.96V657.9m0-14.97v-3m0-14.96V610l.42-5 1.22-4.82.5-1.1" stroke="#474747" stroke-width="3" fill="none"/><use xlink:href="#u" transform="matrix(1,0,0,1,2320,1993.1999999999998) translate(204.075 12.799999999999999)"/><use xlink:href="#v" transform="matrix(1,0,0,1,2320,1993.1999999999998) translate(246.075 12.799999999999999)"/><use xlink:href="#w" transform="matrix(1,0,0,1,2320,1993.1999999999998) translate(309.975 12.799999999999999)"/><path d="M3497.12 1294.35c-.48-.6-.84-1.22-1.2-1.83-2.04-3.88-3.12-7.45-3.84-11.73-3-14.2-10.92-25.1-23.4-32.45-8.76-5.3-17.64-8.77-28.08-7.44-13.92 1.74-25.68 6.94-33.84 18.98-4.68 7.14-7.92 13.67-10.68 21.83-2.52 7.04-2.28 14.7-5.4 21.53-.72 1.43-1.44 2.55-2.28 3.87-2.16 3.37-5.04 6.43-6.6 10-3.84 8.87-1.68 13.97 6.84 18.36.96.4 1.8.82 2.76 1.22 9.96 3.98 33.36 8.98 47.76 3.47 3.6-1.12 6.48-2.34 9.72-4.18 11.52-6.12 23.04-12.44 34.56-18.67 5.4-2.75 9.72-5.9 13.8-10.5 3.72-4.3 3.6-8.26-.12-12.45z" fill="#4b612c"/><path d="M3456.45 1245.85c6.4 2.3 11.53 5.26 16.76 9.84 3.64 2.86 13.46 13 15.7 25.6.22 1.9.43 3.82.75 5.64.32.86.75 1.52 1.3 2.2l1.16 2.95s2.15 3.43 3.32 5.06c1.5 2.1 2.03 4.2.43 6.3-3.74 4.78-8.55 8.13-14.42 11.18l.54-6.2-3.85-1.15c-1.5 3.33-.53 5.8 3.1 7.63-3.42 1.8-6.5 3.44-9.5 4.97-9.3 4.97-18.48 10.03-27.77 14.9-7.15 3.73-14.1 5.26-22.1 5.07-9.3-.4-17.2-1.9-25.95-4.97-3.73-1.44-6.83-7.36-5.65-11.08.53-1.82 2.45-2.97 4.27-2.58 6.5.66 13.02 1.43 19.54 2.2 7.15.85 14.4 2.48 21.57 2.48 8.22 0 16-2.5 23.7-5.64-2.35.2-4.7.3-6.94.48-6.52.48-12.93.67-19.34 1.53-8 1.04-15.48-.68-23.06-2.6-6.2-1.33-11.1-4.67-14.63-9.93-1.4-2.1-2.24-4.4-1.17-6.6.85.77 1.8 2.2 2.45 2.1.75-.1 2.03-1.33 2.46-2.38.97-2.6 1.6-5.26 2.36-7.94 1.17-5.06 2.45-9.36 4.16-14.33 3.3-8.4 6.94-16.82 12.6-24.08 2.14-2.86 4.17-5.16 6.94-7.55 3.3-2.96 7.7-3.9 12.07-4.4 5.02-.47 10.14-.18 15.37-.28.22 0 .54.3.86.4z" fill="#759c3e"/><path d="M3488.92 1281.32c-1.06-2.36-2.07-4.26-3.38-6.48-1.2-1.66-2.46-2.9-4.16-4.07-7.54-5.23-17.87-3.33-23.08 4.16-4.28 5.97-6.23 12.77-7.37 19.85-.34 2.13-.6 4.26-.98 7-2.24-3.85-3.26-7.64-3.3-12.1-.42-8.55.8-16.83 6.18-23.95 3.82-5.1 8.35-9.26 15-10.18 1.86-.1 3.47-.05 5.34.18 2.03 1.76 4.44 3.2 6 5.28 4.42 5.42 7.25 10.8 9.33 17.45.2.97.34 1.85.42 2.87z" fill="#b7ca9d"/><path d="M3456.42 1245.86c-7.4 2.03-11.67 7.5-15.18 13.8-5.05 9-8.74 18.54-8.54 29.02.03 6.35 1.18 11.7 3.75 17.47.27.57.45 1.2.8 2.16-2.72.13-5.08-1.07-6.56-3.36-2.8-4.06-4.02-8.32-3.8-13.28.3-13.53 2.94-26.55 11.83-37.48 2.03-2.4 3.92-4.38 6.35-6.48 2.4-2.16 5.2-3.1 8.38-2.92z" fill="#b7ca9d"/><path d="M3492.1 1292.1c0 3.35-2.32 5.13-4.53 6.9-11.27 9-24.38 13.72-38.33 16.3-6.2 1.14-12.47 2.16-18.75 2.92-7.58.9-14.7-1.75-21.9-3.62-2.95-.76-5.8-1.7-8.86-2.58 0-.32 0-.6.1-.93 1.38-.13 2.58-.13 3.96 0 5.82.98 11.55 2.47 17.37 3.06 5.63.58 10.52.58 16.16 0 10.53-1.1 19.4-3.13 29.37-6.87 5.8-2.32 10.52-4.63 15.88-7.73 4.06-2.28 7.85-5.15 8.3-10.4zM3478.14 1307.3c2.8-1.65 5.5-3.46 8.4-4.94 1.32-.4 2.5-.57 3.88-.52l.28.68-8.73 5.9z" fill="#b7ca9d"/><use xlink:href="#x" transform="matrix(1,0,0,1,3380,1342.5999999999767) translate(4.624999999999993 14.4)"/><use xlink:href="#y" transform="matrix(1,0,0,1,3380,1342.5999999999767) translate(41.574999999999996 14.4)"/><use xlink:href="#z" transform="matrix(1,0,0,1,3380,1342.5999999999767) translate(83.475 14.4)"/><use xlink:href="#A" transform="matrix(1,0,0,1,3380,1342.5999999999767) translate(18.5 36)"/><use xlink:href="#B" transform="matrix(1,0,0,1,3380,1342.5999999999767) translate(45.5 36)"/><use xlink:href="#C" transform="matrix(1,0,0,1,3380,1342.5999999999767) translate(38.05 57.6)"/><path d="M3442 885.42l57.98 8.62v5.1c0 7.53-25.98 13.63-58 13.63-32 0-57.98-6.1-57.98-13.64v-5.53z" fill="#8c3123"/><path d="M3442.02 922.13c24.2 0 44.93-3.54 53.58-8.5l2.88-4.78 1.15-4.4v5.45l-19 81c0 5.08-17.3 9.1-38.6 9.1-21.33 0-38.6-4.02-38.6-9.1l-19.02-81v-5.35l4.38 9.27c8.76 4.87 29.27 8.3 53.24 8.3z" fill="#8c3123"/><path d="M3442 880c32 0 58 6.12 58 13.62 0 7.5-26 13.57-58 13.57s-58-6.02-58-13.58c0-7.56 26-13.62 58-13.62z" fill="#e05243"/><path d="M3442 916.6c29.84 0 54.4-5.2 57.62-12.06l-19.02 81c0 5.05-17.3 9.1-38.6 9.1-21.33 0-38.6-4.05-38.6-9.1l-19.03-81c3.23 6.85 27.78 12.07 57.62 12.07z" fill="#e05243"/><path d="M3428.35 924.38h25.1v24.96h-25.1v-24.96zM3420.75 958.17c6.84 0 12.4 5.5 12.4 12.3 0 6.8-5.56 12.3-12.4 12.3-6.83 0-12.38-5.5-12.38-12.3 0-6.8 5.55-12.3 12.38-12.3zM3472.8 982.2H3448l12.4-22.94 12.4 22.94z" fill="#fff"/><use xlink:href="#D" transform="matrix(1,0,0,1,3384,1000) translate(18 14.4)"/><use xlink:href="#E" transform="matrix(1,0,0,1,3384,1000) translate(45 14.4)"/><use xlink:href="#z" transform="matrix(1,0,0,1,3384,1000) translate(42.05 36)"/><use xlink:href="#F" transform="matrix(1,0,0,1,3384,1000) translate(15.074999999999996 57.6)"/><use xlink:href="#G" transform="matrix(1,0,0,1,3384,1000) translate(38.5 79.20000000000002)"/><path d="M3440 1240.02v-221.65" stroke="#000" stroke-width="2" fill="none"/><path d="M3441 1240.88l-.4.03-1.6.32V1240h2z"/><path d="M3440 1003.1l4.63 14.27h-9.27z" stroke="#000" stroke-width="2"/><path d="M2701 745.45h344.54v556.15h327.05" stroke="#000" stroke-width="2" fill="none"/><path d="M2701.03 746.45H2700v-2h1.03z"/><path d="M3387.85 1301.6l-14.26 4.64v-9.28z" stroke="#000" stroke-width="2"/><path d="M2701 1035.45h344.54v266.15h327.05" stroke="#000" stroke-width="2" fill="none"/><path d="M2701.03 1036.45H2700v-2h1.03z"/><path d="M3387.85 1301.6l-14.26 4.64v-9.28z" stroke="#000" stroke-width="2"/><path d="M2701 1585.45h344.54V1301.6h327.05" stroke="#000" stroke-width="2" fill="none"/><path d="M2701.03 1586.45H2700v-2h1.03z"/><path d="M3387.85 1301.6l-14.26 4.64v-9.28z" stroke="#000" stroke-width="2"/><path d="M2701 1865.45h344.54V1301.6h327.05" stroke="#000" stroke-width="2" fill="none"/><path d="M2701.03 1866.45H2700v-2h1.03z"/><path d="M3387.85 1301.6l-14.26 4.64v-9.28z" stroke="#000" stroke-width="2"/><path d="M1575 882.36c0 31.8-25.76 57.63-57.5 57.63s-57.5-25.83-57.5-57.64c0-31.8 25.76-57.63 57.5-57.63s57.5 25.82 57.5 57.63z" fill="#9d5025"/><path d="M1575 877.63c0 31.8-25.76 57.63-57.5 57.63s-57.5-25.82-57.5-57.63c0-31.8 25.76-57.63 57.5-57.63s57.5 25.82 57.5 57.63z" fill="#f58536"/><path d="M1533.06 850.86h6.06v53.5h-6.06v-53.5zM1550.1 864.4l15.88 12.97-15.87 13.48V864.4z" fill="#fff"/><path d="M1493.98 874.6l3.5 2.8-3.85 3.26h59.15v-6.06h-58.8zM1493.63 853.9h45.5v-6.06h-45.14l3.45 2.82-3.82 3.25zM1497.45 904.15l-3.82 3.26h45.5v-6.06h-45.14l3.45 2.8zM1481 867.04l12.68 10.35-12.7 10.8v-21.16zM1481 840.3l12.68 10.35-12.7 10.8v-21.16zM1481 893.8l12.68 10.36-12.7 10.78V893.8z" fill="#fff"/><use xlink:href="#H" transform="matrix(1,0,0,1,1460,940) translate(19.424999999999997 14.4)"/><use xlink:href="#I" transform="matrix(1,0,0,1,1460,940) translate(61.375 14.4)"/><use xlink:href="#J" transform="matrix(1,0,0,1,1460,940) translate(24.025 36)"/><path d="M1575 1722.36c0 31.8-25.76 57.63-57.5 57.63s-57.5-25.83-57.5-57.64c0-31.8 25.76-57.63 57.5-57.63s57.5 25.82 57.5 57.63z" fill="#9d5025"/><path d="M1575 1717.63c0 31.8-25.76 57.63-57.5 57.63s-57.5-25.82-57.5-57.63c0-31.8 25.76-57.63 57.5-57.63s57.5 25.82 57.5 57.63z" fill="#f58536"/><path d="M1533.06 1690.86h6.06v53.5h-6.06v-53.5zM1550.1 1704.4l15.88 12.97-15.87 13.48v-26.44z" fill="#fff"/><path d="M1493.98 1714.6l3.5 2.8-3.85 3.26h59.15v-6.06h-58.8zM1493.63 1693.9h45.5v-6.06h-45.14l3.45 2.82-3.82 3.25zM1497.45 1744.15l-3.82 3.26h45.5v-6.06h-45.14l3.45 2.8zM1481 1707.04l12.68 10.35-12.7 10.8v-21.16zM1481 1680.3l12.68 10.35-12.7 10.8v-21.16zM1481 1733.8l12.68 10.36-12.7 10.78v-21.14z" fill="#fff"/><use xlink:href="#H" transform="matrix(1,0,0,1,1460,1780) translate(19.424999999999997 14.4)"/><use xlink:href="#I" transform="matrix(1,0,0,1,1460,1780) translate(61.375 14.4)"/><use xlink:href="#J" transform="matrix(1,0,0,1,1460,1780) translate(24.025 36)"/><path d="M2048.46 1869h453.04v2h-455.04v-145.67h-5.5v-2h7.5zm-472.55-143.67v-2h407.13v2z"/><path d="M1575.94 1725.33h-1.07l.1-2h.97zM2516.76 1870l-14.26 4.64v-9.28z"/><path d="M2520 1870l-18.5 6v-12zm-16.5 3.26l10.03-3.26-10.03-3.26z"/><use xlink:href="#K" transform="matrix(1,0,0,1,1983.025,1713.5297786369488) translate(0 14.4)"/><use xlink:href="#L" transform="matrix(1,0,0,1,1983.025,1713.5297786369488) translate(37.95 14.4)"/><path d="M2048.46 1039h453.04v2h-455.04V885.33h-20.15v-2h22.16zM1575.9 885.33v-2h392.46v2z"/><path d="M1575.94 885.33h-1.07l.1-2h.97zM2516.76 1040l-14.26 4.64v-9.28z"/><path d="M2520 1040l-18.5 6v-12zm-16.5 3.26l10.03-3.26-10.03-3.26zM1968.36 885.33H1575.9v-2h392.46zM2501.5 751h-453.04v134.33h-22.15v-2h20.16V749h455.04z"/><path d="M1575.94 885.33h-1.07l.1-2h.97zM2516.76 750l-14.26 4.64v-9.28z"/><path d="M2520 750l-18.5 6v-12zm-16.5 3.26l10.03-3.26-10.03-3.26z"/><use xlink:href="#K" transform="matrix(1,0,0,1,1968.3583333333333,873.5297786369487) translate(0 14.4)"/><use xlink:href="#L" transform="matrix(1,0,0,1,1968.3583333333333,873.5297786369487) translate(37.95 14.4)"/><path d="M1983.03 1725.33H1575.9v-2h407.13zm518.47-149.66h-453.04v149.66h-7.5v-2h5.5v-149.66h455.04z"/><path d="M1575.94 1725.33h-1.07l.1-2h.97zM2516.76 1574.67l-14.26 4.63v-9.27z"/><path d="M2520 1574.67l-18.5 6v-12.02zm-16.5 3.26l10.03-3.26-10.03-3.26z"/><path d="M835 1282.36c0 31.8-25.76 57.63-57.5 57.63s-57.5-25.83-57.5-57.64c0-31.8 25.76-57.63 57.5-57.63s57.5 25.82 57.5 57.63z" fill="#9d5025"/><path d="M835 1277.63c0 31.8-25.76 57.63-57.5 57.63s-57.5-25.82-57.5-57.63c0-31.8 25.76-57.63 57.5-57.63s57.5 25.82 57.5 57.63z" fill="#f58536"/><path d="M729.15 1260.8h20.88v33.65h-20.88v-33.64zM795.88 1237.83h18.63v18.67H795.9v-18.67zM795.88 1268.3h18.63v18.66H795.9v-18.67zM795.88 1298.77h18.63v18.67H795.9v-18.67z" fill="#fff"/><path d="M790.72 1280.07l3.12-1.5 2.04-1-2.04-1-2.76-1.38-8.3-4.12v4.1H757.8l28.36-18.22 2.25 3.5 4.7-7.97 1.37-2.34 1.38-2.32-2.66.3-3 .36-8.88 1.07 2.14 3.27-34.8 22.35-3.82 2.43 4.6 2.92 34.02 21.87-2.14 3.27 8.87 1.06 3.02.36 2.66.3-1.38-2.32-1.38-2.33-4.7-7.98-2.24 3.5-28.36-18.23h24.95v4l7.95-4z" fill="#fff"/><use xlink:href="#M" transform="matrix(1,0,0,1,720,1340) translate(6.074999999999996 14.4)"/><use xlink:href="#N" transform="matrix(1,0,0,1,720,1340) translate(68.92500000000001 14.4)"/><use xlink:href="#O" transform="matrix(1,0,0,1,720,1340) translate(22.049999999999997 36)"/><path d="M777.5 1219V890h664.55" stroke="#000" stroke-width="2" fill="none"/><path d="M778.5 1220.04l-1-.04h-.53l-.47.03v-1.06h2z"/><path d="M1457.32 890l-14.27 4.64v-9.28z" stroke="#000" stroke-width="2"/><path d="M777.5 1341v389h664.55" stroke="#000" stroke-width="2" fill="none"/><path d="M777.5 1340h.53l.47-.04v1.05h-2v-1.06z"/><path d="M1457.32 1730l-14.27 4.64v-9.28z" stroke="#000" stroke-width="2"/><path d="M555 1282.36c0 31.8-25.76 57.63-57.5 57.63s-57.5-25.83-57.5-57.64c0-31.8 25.76-57.63 57.5-57.63s57.5 25.82 57.5 57.63z" fill="#9d5025"/><path d="M440 1277.62h115v4.73H440v-4.73z" fill="#9d5025"/><path d="M555 1277.63c0 31.8-25.76 57.63-57.5 57.63s-57.5-25.82-57.5-57.63c0-31.8 25.76-57.63 57.5-57.63s57.5 25.82 57.5 57.63z" fill="#f58536"/><path d="M454.14 1283.36v-1.5c.44-7 4.34-12.8 10.66-15.86.6-12.86 11.52-22.8 24.43-22.12 8.05.38 14.8 4.5 18.88 11.47 6.6-2.77 14.13.28 16.9 6.82.43.95.7 1.72.86 2.67 8.67 1.72 14.9 10.03 14.9 17.02v1.4c0 8.53-8.83 16-18.88 16h-48.94c-9.96.07-18.8-7.42-18.8-15.9z" fill="#fff"/><path d="M509.27 1261.48l-3.67 2.54-1.87-4.06c-2.85-6.34-8.7-10.23-15.66-10.27H488c-9.52 0-17.3 7.77-17.3 17.38v3.23l-2.7.8c-4.57 1.83-7.57 5.85-7.94 10.8v1.4c0 4.66 5.7 10.08 12.96 10.08h49c7.33 0 12.95-5.42 12.95-10.1v-1.4c0-4.7-5.25-10.87-11.3-11.35l-3.3-.26-.24-3.28c0-1.4-.44-2.54-1.2-3.68-2.17-3.2-6.5-3.98-9.66-1.8z" fill="#f58536"/><g><use xlink:href="#P" transform="matrix(1,0,0,1,440,1340) translate(27.025 14.4)"/><use xlink:href="#Q" transform="matrix(1,0,0,1,440,1340) translate(22.025 36)"/></g><path d="M555.9 1284.33H701.6" stroke="#000" stroke-width="2" fill="none"/><path d="M555.94 1285.33h-1.07l.1-2h.97z"/><path d="M716.84 1284.33l-14.26 4.64v-9.28z" stroke="#000" stroke-width="2"/><path d="M281.18 1269.72c11.06 0 18.8 6.98 18.8 16.92v21.58h-9.72v-14.64h-2.67v14.64H272.6c-1-10.94-9.84-18.38-22.24-18.38h-8.62v-5.97c9.5-.85 17.12-4.5 17.94-14.2h.87zM219.34 1269.7h.93c.88 9.68 8.44 13.34 17.93 14.2v5.93h-8.44c-12.4 0-21.3 7.48-22.23 18.4h-14.67v-14.66h-2.68v14.65H180v-21.63c0-10 7.74-16.94 18.86-16.94z" fill="#7d7c7c"/><path d="M250.3 1298.93c11.06 0 18.8 6.98 18.8 16.93v21.63h-9.78v-14.7h-2.62v14.65h-33.07v-14.65h-2.56v14.65h-10.2v-21.6c0-9.94 7.75-16.92 18.8-16.92zM209.06 1227.56l16.32 11.6v5c.1 9.14-7.18 16.6-16.28 16.7h-.04c-8.94 0-16.32-7.47-16.32-17.42v-4.4zM270.86 1227.56l16.32 11.6v5c.1 9.14-7.18 16.6-16.28 16.7h-.04c-8.94 0-16.32-7.47-16.32-17.42v-4.4zM240 1250.34l14.4 10.2v4.5c.14 8.07-6.28 14.72-14.35 14.87H240c-8.17-.2-14.63-6.94-14.42-15.1 0-.12 0-.2.02-.33v-4.02z" fill="#7d7c7c"/><path d="M270.88 1222.5c9.18-.17 16.76 7.16 16.93 16.35.17 9.2-7.14 16.78-16.32 16.94-9.18.16-16.76-7.17-16.92-16.35v-.34c-.07-9.08 7.2-16.53 16.32-16.6zM239.96 1245.2c8.14-.2 14.9 6.25 15.1 14.4.18 8.15-6.25 14.9-14.4 15.12-8.13.18-14.9-6.26-15.1-14.4v-.36c-.08-8.07 6.35-14.65 14.4-14.77zM281.18 1264.58c11.06 0 18.8 6.98 18.8 16.94v21.64h-9.72v-14.66h-2.67v14.66H272.6c-1-10.96-9.84-18.36-22.24-18.36h-8.62v-1.9c9.73-.96 17.12-8.52 17.94-18.24h.87zM219.34 1264.6h.93c.82 9.75 8.2 17.3 17.93 18.27v1.85h-8.44c-12.4 0-21.3 7.48-22.23 18.4h-14.67v-14.62h-2.68v14.65H180v-21.63c0-10 7.74-16.93 18.86-16.93z" fill="#d2d3d3"/><path d="M250.3 1293.87c11.06 0 18.8 6.98 18.8 16.93v21.63h-9.78v-14.65h-2.62v14.65h-33.07v-14.65h-2.56v14.65h-10.2v-21.63c0-9.95 7.75-16.93 18.8-16.93zM209.07 1222.5c9.18-.17 16.76 7.16 16.93 16.35.16 9.2-7.15 16.78-16.33 16.94-9.18.16-16.76-7.17-16.93-16.35v-.34c-.06-9.08 7.22-16.5 16.33-16.6z" fill="#d2d3d3"/><g><use xlink:href="#R" transform="matrix(1,0,0,1,180,1337.5) translate(38.025 14.4)"/></g><path d="M301 1284.44h120.58" stroke="#000" stroke-width="2" fill="none"/><path d="M301 1285.44h-1v-2h1z"/><path d="M436.85 1284.44l-14.27 4.64v-9.27z" stroke="#000" stroke-width="2"/><path d="M1279.78 705.36h75.44c19.78 0 19.78 0 19.78 19.72v75.2c0 19.7 0 19.7-19.78 19.7h-75.44c-19.78 0-19.78 0-19.78-19.7v-75.2c0-19.72 0-19.72 19.78-19.72z" fill="#9d5025"/><path d="M1279.78 700h75.44c19.78 0 19.78 0 19.78 19.72v75.2c0 19.7 0 19.7-19.78 19.7h-75.44c-19.78 0-19.78 0-19.78-19.7v-75.2c0-19.72 0-19.72 19.78-19.72z" fill="#f58536"/><g><use xlink:href="#S" transform="matrix(1,0,0,1,1260,820) translate(27.525 14.4)"/></g><path d="M2059.03 683.67H1948.5v81.67H1376v-2h570.5v-81.67h112.53zm442.47 0h-384.53v-2h384.53z"/><path d="M1376.03 765.34H1375v-2h1.03zM2516.76 682.67l-14.26 4.63v-9.27z"/><path d="M2520 682.67l-18.5 6v-12.02zm-16.5 3.26l10.03-3.26-10.03-3.26z"/><g><use xlink:href="#K" transform="matrix(1,0,0,1,2059.025,671.8666666666667) translate(0 14.4)"/><use xlink:href="#T" transform="matrix(1,0,0,1,2059.025,671.8666666666667) translate(37.95 14.4)"/></g><path d="M787.24 771H631v514.33h-75.1v-2H629V769h158.24zm454.26 0H866.1v-2h375.4z"/><path d="M555.94 1285.33h-1.07l.1-2h.97zM1256.76 770l-14.26 4.64v-9.28z"/><path d="M1260 770l-18.5 6v-12zm-16.5 3.26l10.03-3.26-10.03-3.26z"/><g><use xlink:href="#U" transform="matrix(1,0,0,1,787.2416666666667,759.2) translate(0 14.4)"/><use xlink:href="#V" transform="matrix(1,0,0,1,787.2416666666667,759.2) translate(41.95 14.4)"/></g><defs><path fill="#232f3e" d="M205 0l-28-72H64L36 0H1l101-248h38L239 0h-34zm-38-99l-47-123c-12 45-31 82-46 123h93" id="W"/><path fill="#232f3e" d="M266 0h-40l-56-210L115 0H75L2-248h35L96-30l15-64 43-154h32l59 218 59-218h35" id="X"/><path fill="#232f3e" d="M185-189c-5-48-123-54-124 2 14 75 158 14 163 119 3 78-121 87-175 55-17-10-28-26-33-46l33-7c5 56 141 63 141-1 0-78-155-14-162-118-5-82 145-84 179-34 5 7 8 16 11 25" id="Y"/><g id="a"><use transform="matrix(0.05,0,0,0.05,0,0)" xlink:href="#W"/><use transform="matrix(0.05,0,0,0.05,11.35,0)" xlink:href="#X"/><use transform="matrix(0.05,0,0,0.05,28.299999999999997,0)" xlink:href="#Y"/></g><path fill="#232f3e" d="M212-179c-10-28-35-45-73-45-59 0-87 40-87 99 0 60 29 101 89 101 43 0 62-24 78-52l27 14C228-24 195 4 139 4 59 4 22-46 18-125c-6-104 99-153 187-111 19 9 31 26 39 46" id="Z"/><path fill="#232f3e" d="M24 0v-261h32V0H24" id="aa"/><path fill="#232f3e" d="M100-194c62-1 85 37 85 99 1 63-27 99-86 99S16-35 15-95c0-66 28-99 85-99zM99-20c44 1 53-31 53-75 0-43-8-75-51-75s-53 32-53 75 10 74 51 75" id="ab"/><path fill="#232f3e" d="M84 4C-5 8 30-112 23-190h32v120c0 31 7 50 39 49 72-2 45-101 50-169h31l1 190h-30c-1-10 1-25-2-33-11 22-28 36-60 37" id="ac"/><path fill="#232f3e" d="M85-194c31 0 48 13 60 33l-1-100h32l1 261h-30c-2-10 0-23-3-31C134-8 116 4 85 4 32 4 16-35 15-94c0-66 23-100 70-100zm9 24c-40 0-46 34-46 75 0 40 6 74 45 74 42 0 51-32 51-76 0-42-9-74-50-73" id="ad"/><g id="b"><use transform="matrix(0.05,0,0,0.05,0,0)" xlink:href="#Z"/><use transform="matrix(0.05,0,0,0.05,12.950000000000001,0)" xlink:href="#aa"/><use transform="matrix(0.05,0,0,0.05,16.900000000000002,0)" xlink:href="#ab"/><use transform="matrix(0.05,0,0,0.05,26.900000000000002,0)" xlink:href="#ac"/><use transform="matrix(0.05,0,0,0.05,36.900000000000006,0)" xlink:href="#ad"/></g><path fill="#248814" d="M137 0h-34L2-248h35l83 218 83-218h36" id="ae"/><path fill="#248814" d="M24-231v-30h32v30H24zM24 0v-190h32V0H24" id="af"/><path fill="#248814" d="M114-163C36-179 61-72 57 0H25l-1-190h30c1 12-1 29 2 39 6-27 23-49 58-41v29" id="ag"/><path fill="#248814" d="M59-47c-2 24 18 29 38 22v24C64 9 27 4 27-40v-127H5v-23h24l9-43h21v43h35v23H59v120" id="ah"/><path fill="#248814" d="M84 4C-5 8 30-112 23-190h32v120c0 31 7 50 39 49 72-2 45-101 50-169h31l1 190h-30c-1-10 1-25-2-33-11 22-28 36-60 37" id="ai"/><path fill="#248814" d="M141-36C126-15 110 5 73 4 37 3 15-17 15-53c-1-64 63-63 125-63 3-35-9-54-41-54-24 1-41 7-42 31l-33-3c5-37 33-52 76-52 45 0 72 20 72 64v82c-1 20 7 32 28 27v20c-31 9-61-2-59-35zM48-53c0 20 12 33 32 33 41-3 63-29 60-74-43 2-92-5-92 41" id="aj"/><path fill="#248814" d="M24 0v-261h32V0H24" id="ak"/><g id="c"><use transform="matrix(0.05,0,0,0.05,0,0)" xlink:href="#ae"/><use transform="matrix(0.05,0,0,0.05,11.65,0)" xlink:href="#af"/><use transform="matrix(0.05,0,0,0.05,15.600000000000001,0)" xlink:href="#ag"/><use transform="matrix(0.05,0,0,0.05,21.55,0)" xlink:href="#ah"/><use transform="matrix(0.05,0,0,0.05,26.55,0)" xlink:href="#ai"/><use transform="matrix(0.05,0,0,0.05,36.55,0)" xlink:href="#aj"/><use transform="matrix(0.05,0,0,0.05,46.55,0)" xlink:href="#ak"/></g><path fill="#248814" d="M30-248c87 1 191-15 191 75 0 78-77 80-158 76V0H30v-248zm33 125c57 0 124 11 124-50 0-59-68-47-124-48v98" id="al"/><path fill="#248814" d="M108 0H70L1-190h34L89-25l56-165h34" id="am"/><path fill="#248814" d="M100-194c63 0 86 42 84 106H49c0 40 14 67 53 68 26 1 43-12 49-29l28 8c-11 28-37 45-77 45C44 4 14-33 15-96c1-61 26-98 85-98zm52 81c6-60-76-77-97-28-3 7-6 17-6 28h103" id="an"/><g id="d"><use transform="matrix(0.05,0,0,0.05,0,0)" xlink:href="#al"/><use transform="matrix(0.05,0,0,0.05,12,0)" xlink:href="#ag"/><use transform="matrix(0.05,0,0,0.05,17.95,0)" xlink:href="#af"/><use transform="matrix(0.05,0,0,0.05,21.9,0)" xlink:href="#am"/><use transform="matrix(0.05,0,0,0.05,30.899999999999995,0)" xlink:href="#aj"/><use transform="matrix(0.05,0,0,0.05,40.9,0)" xlink:href="#ah"/><use transform="matrix(0.05,0,0,0.05,45.9,0)" xlink:href="#an"/></g><path fill="#248814" d="M212-179c-10-28-35-45-73-45-59 0-87 40-87 99 0 60 29 101 89 101 43 0 62-24 78-52l27 14C228-24 195 4 139 4 59 4 22-46 18-125c-6-104 99-153 187-111 19 9 31 26 39 46" id="ao"/><path fill="#248814" d="M100-194c62-1 85 37 85 99 1 63-27 99-86 99S16-35 15-95c0-66 28-99 85-99zM99-20c44 1 53-31 53-75 0-43-8-75-51-75s-53 32-53 75 10 74 51 75" id="ap"/><path fill="#248814" d="M85-194c31 0 48 13 60 33l-1-100h32l1 261h-30c-2-10 0-23-3-31C134-8 116 4 85 4 32 4 16-35 15-94c0-66 23-100 70-100zm9 24c-40 0-46 34-46 75 0 40 6 74 45 74 42 0 51-32 51-76 0-42-9-74-50-73" id="aq"/><g id="e"><use transform="matrix(0.05,0,0,0.05,0,0)" xlink:href="#ao"/><use transform="matrix(0.05,0,0,0.05,12.950000000000001,0)" xlink:href="#ak"/><use transform="matrix(0.05,0,0,0.05,16.900000000000002,0)" xlink:href="#ap"/><use transform="matrix(0.05,0,0,0.05,26.900000000000002,0)" xlink:href="#ai"/><use transform="matrix(0.05,0,0,0.05,36.900000000000006,0)" xlink:href="#aq"/></g><path d="M205 0l-28-72H64L36 0H1l101-248h38L239 0h-34zm-38-99l-47-123c-12 45-31 82-46 123h93" id="ar"/><path d="M108 0H70L1-190h34L89-25l56-165h34" id="as"/><path d="M141-36C126-15 110 5 73 4 37 3 15-17 15-53c-1-64 63-63 125-63 3-35-9-54-41-54-24 1-41 7-42 31l-33-3c5-37 33-52 76-52 45 0 72 20 72 64v82c-1 20 7 32 28 27v20c-31 9-61-2-59-35zM48-53c0 20 12 33 32 33 41-3 63-29 60-74-43 2-92-5-92 41" id="at"/><path d="M24-231v-30h32v30H24zM24 0v-190h32V0H24" id="au"/><path d="M24 0v-261h32V0H24" id="av"/><path d="M115-194c53 0 69 39 70 98 0 66-23 100-70 100C84 3 66-7 56-30L54 0H23l1-261h32v101c10-23 28-34 59-34zm-8 174c40 0 45-34 45-75 0-40-5-75-45-74-42 0-51 32-51 76 0 43 10 73 51 73" id="aw"/><path d="M59-47c-2 24 18 29 38 22v24C64 9 27 4 27-40v-127H5v-23h24l9-43h21v43h35v23H59v120" id="ax"/><path d="M179-190L93 31C79 59 56 82 12 73V49c39 6 53-20 64-50L1-190h34L92-34l54-156h33" id="ay"/><g id="f"><use transform="matrix(0.05,0,0,0.05,0,0)" xlink:href="#ar"/><use transform="matrix(0.05,0,0,0.05,11.65,0)" xlink:href="#as"/><use transform="matrix(0.05,0,0,0.05,20.65,0)" xlink:href="#at"/><use transform="matrix(0.05,0,0,0.05,30.649999999999995,0)" xlink:href="#au"/><use transform="matrix(0.05,0,0,0.05,34.6,0)" xlink:href="#av"/><use transform="matrix(0.05,0,0,0.05,38.550000000000004,0)" xlink:href="#at"/><use transform="matrix(0.05,0,0,0.05,48.550000000000004,0)" xlink:href="#aw"/><use transform="matrix(0.05,0,0,0.05,58.550000000000004,0)" xlink:href="#au"/><use transform="matrix(0.05,0,0,0.05,62.5,0)" xlink:href="#av"/><use transform="matrix(0.05,0,0,0.05,66.45,0)" xlink:href="#au"/><use transform="matrix(0.05,0,0,0.05,70.4,0)" xlink:href="#ax"/><use transform="matrix(0.05,0,0,0.05,75.4,0)" xlink:href="#ay"/></g><path d="M209 0H11v-25l151-195H24v-28h176v25L50-27h159V0" id="az"/><path d="M100-194c62-1 85 37 85 99 1 63-27 99-86 99S16-35 15-95c0-66 28-99 85-99zM99-20c44 1 53-31 53-75 0-43-8-75-51-75s-53 32-53 75 10 74 51 75" id="aA"/><path d="M117-194c89-4 53 116 60 194h-32v-121c0-31-8-49-39-48C34-167 62-67 57 0H25l-1-190h30c1 10-1 24 2 32 11-22 29-35 61-36" id="aB"/><path d="M100-194c63 0 86 42 84 106H49c0 40 14 67 53 68 26 1 43-12 49-29l28 8c-11 28-37 45-77 45C44 4 14-33 15-96c1-61 26-98 85-98zm52 81c6-60-76-77-97-28-3 7-6 17-6 28h103" id="aC"/><g id="g"><use transform="matrix(0.05,0,0,0.05,0,0)" xlink:href="#az"/><use transform="matrix(0.05,0,0,0.05,10.950000000000001,0)" xlink:href="#aA"/><use transform="matrix(0.05,0,0,0.05,20.950000000000003,0)" xlink:href="#aB"/><use transform="matrix(0.05,0,0,0.05,30.950000000000003,0)" xlink:href="#aC"/></g><path d="M27 0v-27h64v-190l-56 39v-29l58-41h29v221h61V0H27" id="aD"/><use transform="matrix(0.05,0,0,0.05,0,0)" xlink:href="#aD" id="h"/><path d="M101-251c82-7 93 87 43 132L82-64C71-53 59-42 53-27h129V0H18c2-99 128-94 128-182 0-28-16-43-45-43s-46 15-49 41l-32-3c6-41 34-60 81-64" id="aE"/><use transform="matrix(0.05,0,0,0.05,0,0)" xlink:href="#aE" id="i"/><path fill="#248814" d="M115-194c53 0 69 39 70 98 0 66-23 100-70 100C84 3 66-7 56-30L54 0H23l1-261h32v101c10-23 28-34 59-34zm-8 174c40 0 45-34 45-75 0-40-5-75-45-74-42 0-51 32-51 76 0 43 10 73 51 73" id="aF"/><path fill="#248814" d="M96-169c-40 0-48 33-48 73s9 75 48 75c24 0 41-14 43-38l32 2c-6 37-31 61-74 61-59 0-76-41-82-99-10-93 101-131 147-64 4 7 5 14 7 22l-32 3c-4-21-16-35-41-35" id="aG"/><g id="j"><use transform="matrix(0.05,0,0,0.05,0,0)" xlink:href="#al"/><use transform="matrix(0.05,0,0,0.05,12,0)" xlink:href="#ai"/><use transform="matrix(0.05,0,0,0.05,22,0)" xlink:href="#aF"/><use transform="matrix(0.05,0,0,0.05,32,0)" xlink:href="#ak"/><use transform="matrix(0.05,0,0,0.05,35.95,0)" xlink:href="#af"/><use transform="matrix(0.05,0,0,0.05,39.900000000000006,0)" xlink:href="#aG"/></g><path fill="#248814" d="M185-189c-5-48-123-54-124 2 14 75 158 14 163 119 3 78-121 87-175 55-17-10-28-26-33-46l33-7c5 56 141 63 141-1 0-78-155-14-162-118-5-82 145-84 179-34 5 7 8 16 11 25" id="aH"/><path fill="#248814" d="M117-194c89-4 53 116 60 194h-32v-121c0-31-8-49-39-48C34-167 62-67 57 0H25l-1-190h30c1 10-1 24 2 32 11-22 29-35 61-36" id="aI"/><g id="k"><use transform="matrix(0.05,0,0,0.05,0,0)" xlink:href="#aH"/><use transform="matrix(0.05,0,0,0.05,12,0)" xlink:href="#ai"/><use transform="matrix(0.05,0,0,0.05,22,0)" xlink:href="#aF"/><use transform="matrix(0.05,0,0,0.05,32,0)" xlink:href="#aI"/><use transform="matrix(0.05,0,0,0.05,42,0)" xlink:href="#an"/><use transform="matrix(0.05,0,0,0.05,52,0)" xlink:href="#ah"/></g><path fill="#248814" d="M101-251c82-7 93 87 43 132L82-64C71-53 59-42 53-27h129V0H18c2-99 128-94 128-182 0-28-16-43-45-43s-46 15-49 41l-32-3c6-41 34-60 81-64" id="aJ"/><use transform="matrix(0.05,0,0,0.05,0,0)" xlink:href="#aJ" id="l"/><path fill="#248814" d="M27 0v-27h64v-190l-56 39v-29l58-41h29v221h61V0H27" id="aK"/><use transform="matrix(0.05,0,0,0.05,0,0)" xlink:href="#aK" id="m"/><path fill="#147eba" d="M30-248c87 1 191-15 191 75 0 78-77 80-158 76V0H30v-248zm33 125c57 0 124 11 124-50 0-59-68-47-124-48v98" id="aL"/><path fill="#147eba" d="M114-163C36-179 61-72 57 0H25l-1-190h30c1 12-1 29 2 39 6-27 23-49 58-41v29" id="aM"/><path fill="#147eba" d="M24-231v-30h32v30H24zM24 0v-190h32V0H24" id="aN"/><path fill="#147eba" d="M108 0H70L1-190h34L89-25l56-165h34" id="aO"/><path fill="#147eba" d="M141-36C126-15 110 5 73 4 37 3 15-17 15-53c-1-64 63-63 125-63 3-35-9-54-41-54-24 1-41 7-42 31l-33-3c5-37 33-52 76-52 45 0 72 20 72 64v82c-1 20 7 32 28 27v20c-31 9-61-2-59-35zM48-53c0 20 12 33 32 33 41-3 63-29 60-74-43 2-92-5-92 41" id="aP"/><path fill="#147eba" d="M59-47c-2 24 18 29 38 22v24C64 9 27 4 27-40v-127H5v-23h24l9-43h21v43h35v23H59v120" id="aQ"/><path fill="#147eba" d="M100-194c63 0 86 42 84 106H49c0 40 14 67 53 68 26 1 43-12 49-29l28 8c-11 28-37 45-77 45C44 4 14-33 15-96c1-61 26-98 85-98zm52 81c6-60-76-77-97-28-3 7-6 17-6 28h103" id="aR"/><g id="n"><use transform="matrix(0.05,0,0,0.05,0,0)" xlink:href="#aL"/><use transform="matrix(0.05,0,0,0.05,12,0)" xlink:href="#aM"/><use transform="matrix(0.05,0,0,0.05,17.95,0)" xlink:href="#aN"/><use transform="matrix(0.05,0,0,0.05,21.9,0)" xlink:href="#aO"/><use transform="matrix(0.05,0,0,0.05,30.899999999999995,0)" xlink:href="#aP"/><use transform="matrix(0.05,0,0,0.05,40.9,0)" xlink:href="#aQ"/><use transform="matrix(0.05,0,0,0.05,45.9,0)" xlink:href="#aR"/></g><path fill="#147eba" d="M185-189c-5-48-123-54-124 2 14 75 158 14 163 119 3 78-121 87-175 55-17-10-28-26-33-46l33-7c5 56 141 63 141-1 0-78-155-14-162-118-5-82 145-84 179-34 5 7 8 16 11 25" id="aS"/><path fill="#147eba" d="M84 4C-5 8 30-112 23-190h32v120c0 31 7 50 39 49 72-2 45-101 50-169h31l1 190h-30c-1-10 1-25-2-33-11 22-28 36-60 37" id="aT"/><path fill="#147eba" d="M115-194c53 0 69 39 70 98 0 66-23 100-70 100C84 3 66-7 56-30L54 0H23l1-261h32v101c10-23 28-34 59-34zm-8 174c40 0 45-34 45-75 0-40-5-75-45-74-42 0-51 32-51 76 0 43 10 73 51 73" id="aU"/><path fill="#147eba" d="M117-194c89-4 53 116 60 194h-32v-121c0-31-8-49-39-48C34-167 62-67 57 0H25l-1-190h30c1 10-1 24 2 32 11-22 29-35 61-36" id="aV"/><g id="o"><use transform="matrix(0.05,0,0,0.05,0,0)" xlink:href="#aS"/><use transform="matrix(0.05,0,0,0.05,12,0)" xlink:href="#aT"/><use transform="matrix(0.05,0,0,0.05,22,0)" xlink:href="#aU"/><use transform="matrix(0.05,0,0,0.05,32,0)" xlink:href="#aV"/><use transform="matrix(0.05,0,0,0.05,42,0)" xlink:href="#aR"/><use transform="matrix(0.05,0,0,0.05,52,0)" xlink:href="#aQ"/></g><path fill="#147eba" d="M101-251c82-7 93 87 43 132L82-64C71-53 59-42 53-27h129V0H18c2-99 128-94 128-182 0-28-16-43-45-43s-46 15-49 41l-32-3c6-41 34-60 81-64" id="aW"/><use transform="matrix(0.05,0,0,0.05,0,0)" xlink:href="#aW" id="p"/><path d="M115-194c55 1 70 41 70 98S169 2 115 4C84 4 66-9 55-30l1 105H24l-1-265h31l2 30c10-21 28-34 59-34zm-8 174c40 0 45-34 45-75s-6-73-45-74c-42 0-51 32-51 76 0 43 10 73 51 73" id="aX"/><path d="M96-169c-40 0-48 33-48 73s9 75 48 75c24 0 41-14 43-38l32 2c-6 37-31 61-74 61-59 0-76-41-82-99-10-93 101-131 147-64 4 7 5 14 7 22l-32 3c-4-21-16-35-41-35" id="aY"/><g id="q"><use transform="matrix(0.05,0,0,0.05,0,0)" xlink:href="#at"/><use transform="matrix(0.05,0,0,0.05,10,0)" xlink:href="#aX"/><use transform="matrix(0.05,0,0,0.05,20,0)" xlink:href="#aX"/><use transform="matrix(0.05,0,0,0.05,30,0)" xlink:href="#av"/><use transform="matrix(0.05,0,0,0.05,33.95,0)" xlink:href="#au"/><use transform="matrix(0.05,0,0,0.05,37.900000000000006,0)" xlink:href="#aY"/><use transform="matrix(0.05,0,0,0.05,46.900000000000006,0)" xlink:href="#at"/><use transform="matrix(0.05,0,0,0.05,56.900000000000006,0)" xlink:href="#ax"/><use transform="matrix(0.05,0,0,0.05,61.900000000000006,0)" xlink:href="#au"/><use transform="matrix(0.05,0,0,0.05,65.85000000000001,0)" xlink:href="#aA"/><use transform="matrix(0.05,0,0,0.05,75.85000000000001,0)" xlink:href="#aB"/></g><path d="M135-143c-3-34-86-38-87 0 15 53 115 12 119 90S17 21 10-45l28-5c4 36 97 45 98 0-10-56-113-15-118-90-4-57 82-63 122-42 12 7 21 19 24 35" id="aZ"/><path d="M114-163C36-179 61-72 57 0H25l-1-190h30c1 12-1 29 2 39 6-27 23-49 58-41v29" id="ba"/><g id="r"><use transform="matrix(0.05,0,0,0.05,0,0)" xlink:href="#aZ"/><use transform="matrix(0.05,0,0,0.05,9,0)" xlink:href="#aC"/><use transform="matrix(0.05,0,0,0.05,19,0)" xlink:href="#ba"/><use transform="matrix(0.05,0,0,0.05,24.95,0)" xlink:href="#as"/><use transform="matrix(0.05,0,0,0.05,33.95,0)" xlink:href="#aC"/><use transform="matrix(0.05,0,0,0.05,43.95,0)" xlink:href="#ba"/></g><path d="M126-127c33 6 58 20 58 59 0 88-139 92-164 29-3-8-5-16-6-25l32-3c6 27 21 44 54 44 32 0 52-15 52-46 0-38-36-46-79-43v-28c39 1 72-4 72-42 0-27-17-43-46-43-28 0-47 15-49 41l-32-3c6-42 35-63 81-64 48-1 79 21 79 65 0 36-21 52-52 59" id="bb"/><use transform="matrix(0.05,0,0,0.05,0,0)" xlink:href="#bb" id="s"/><path d="M155-56V0h-30v-56H8v-25l114-167h33v167h35v25h-35zm-30-156c-27 46-58 90-88 131h88v-131" id="bc"/><use transform="matrix(0.05,0,0,0.05,0,0)" xlink:href="#bc" id="t"/><path d="M84 4C-5 8 30-112 23-190h32v120c0 31 7 50 39 49 72-2 45-101 50-169h31l1 190h-30c-1-10 1-25-2-33-11 22-28 36-60 37" id="bd"/><g id="u"><use transform="matrix(0.05,0,0,0.05,0,0)" xlink:href="#ar"/><use transform="matrix(0.05,0,0,0.05,12,0)" xlink:href="#bd"/><use transform="matrix(0.05,0,0,0.05,22,0)" xlink:href="#ax"/><use transform="matrix(0.05,0,0,0.05,27,0)" xlink:href="#aA"/></g><path d="M185-189c-5-48-123-54-124 2 14 75 158 14 163 119 3 78-121 87-175 55-17-10-28-26-33-46l33-7c5 56 141 63 141-1 0-78-155-14-162-118-5-82 145-84 179-34 5 7 8 16 11 25" id="be"/><path d="M177-190C167-65 218 103 67 71c-23-6-38-20-44-43l32-5c15 47 100 32 89-28v-30C133-14 115 1 83 1 29 1 15-40 15-95c0-56 16-97 71-98 29-1 48 16 59 35 1-10 0-23 2-32h30zM94-22c36 0 50-32 50-73 0-42-14-75-50-75-39 0-46 34-46 75s6 73 46 73" id="bf"/><g id="v"><use transform="matrix(0.05,0,0,0.05,0,0)" xlink:href="#be"/><use transform="matrix(0.05,0,0,0.05,12,0)" xlink:href="#aY"/><use transform="matrix(0.05,0,0,0.05,21,0)" xlink:href="#at"/><use transform="matrix(0.05,0,0,0.05,31,0)" xlink:href="#av"/><use transform="matrix(0.05,0,0,0.05,34.95,0)" xlink:href="#au"/><use transform="matrix(0.05,0,0,0.05,38.900000000000006,0)" xlink:href="#aB"/><use transform="matrix(0.05,0,0,0.05,48.900000000000006,0)" xlink:href="#bf"/></g><g id="w"><use transform="matrix(0.05,0,0,0.05,0,0)" xlink:href="#bf"/><use transform="matrix(0.05,0,0,0.05,10,0)" xlink:href="#ba"/><use transform="matrix(0.05,0,0,0.05,15.949999999999998,0)" xlink:href="#aA"/><use transform="matrix(0.05,0,0,0.05,25.950000000000003,0)" xlink:href="#bd"/><use transform="matrix(0.05,0,0,0.05,35.95,0)" xlink:href="#aX"/></g><path d="M33 0v-248h34V0H33" id="bg"/><path d="M240 0l2-218c-23 76-54 145-80 218h-23L58-218 59 0H30v-248h44l77 211c21-75 51-140 76-211h43V0h-30" id="bh"/><g id="x"><use transform="matrix(0.05,0,0,0.05,0,0)" xlink:href="#bg"/><use transform="matrix(0.05,0,0,0.05,5,0)" xlink:href="#ar"/><use transform="matrix(0.05,0,0,0.05,17,0)" xlink:href="#bh"/></g><path d="M233-177c-1 41-23 64-60 70L243 0h-38l-65-103H63V0H30v-248c88 3 205-21 203 71zM63-129c60-2 137 13 137-47 0-61-80-42-137-45v92" id="bi"/><g id="y"><use transform="matrix(0.05,0,0,0.05,0,0)" xlink:href="#bi"/><use transform="matrix(0.05,0,0,0.05,12.950000000000001,0)" xlink:href="#aA"/><use transform="matrix(0.05,0,0,0.05,22.950000000000003,0)" xlink:href="#av"/><use transform="matrix(0.05,0,0,0.05,26.900000000000002,0)" xlink:href="#aC"/></g><path d="M206 0h-36l-40-164L89 0H53L-1-190h32L70-26l43-164h34l41 164 42-164h31" id="bj"/><path d="M106-169C34-169 62-67 57 0H25v-261h32l-1 103c12-21 28-36 61-36 89 0 53 116 60 194h-32v-121c2-32-8-49-39-48" id="bk"/><g id="z"><use transform="matrix(0.05,0,0,0.05,0,0)" xlink:href="#bj"/><use transform="matrix(0.05,0,0,0.05,12.950000000000001,0)" xlink:href="#au"/><use transform="matrix(0.05,0,0,0.05,16.900000000000002,0)" xlink:href="#ax"/><use transform="matrix(0.05,0,0,0.05,21.900000000000002,0)" xlink:href="#bk"/></g><g id="A"><use transform="matrix(0.05,0,0,0.05,0,0)" xlink:href="#be"/><use transform="matrix(0.05,0,0,0.05,12,0)" xlink:href="#bb"/></g><g id="B"><use transform="matrix(0.05,0,0,0.05,0,0)" xlink:href="#at"/><use transform="matrix(0.05,0,0,0.05,10,0)" xlink:href="#aY"/><use transform="matrix(0.05,0,0,0.05,19,0)" xlink:href="#aY"/><use transform="matrix(0.05,0,0,0.05,28,0)" xlink:href="#aC"/><use transform="matrix(0.05,0,0,0.05,38,0)" xlink:href="#aZ"/><use transform="matrix(0.05,0,0,0.05,47,0)" xlink:href="#aZ"/></g><g id="C"><use transform="matrix(0.05,0,0,0.05,0,0)" xlink:href="#ba"/><use transform="matrix(0.05,0,0,0.05,5.95,0)" xlink:href="#au"/><use transform="matrix(0.05,0,0,0.05,9.9,0)" xlink:href="#bf"/><use transform="matrix(0.05,0,0,0.05,19.9,0)" xlink:href="#bk"/><use transform="matrix(0.05,0,0,0.05,29.899999999999995,0)" xlink:href="#ax"/><use transform="matrix(0.05,0,0,0.05,34.9,0)" xlink:href="#aZ"/></g><g id="D"><use transform="matrix(0.05,0,0,0.05,0,0)" xlink:href="#be"/><use transform="matrix(0.05,0,0,0.05,12,0)" xlink:href="#bb"/></g><path d="M143 0L79-87 56-68V0H24v-261h32v163l83-92h37l-77 82L181 0h-38" id="bl"/><g id="E"><use transform="matrix(0.05,0,0,0.05,0,0)" xlink:href="#aw"/><use transform="matrix(0.05,0,0,0.05,10,0)" xlink:href="#bd"/><use transform="matrix(0.05,0,0,0.05,20,0)" xlink:href="#aY"/><use transform="matrix(0.05,0,0,0.05,29,0)" xlink:href="#bl"/><use transform="matrix(0.05,0,0,0.05,38,0)" xlink:href="#aC"/><use transform="matrix(0.05,0,0,0.05,48,0)" xlink:href="#ax"/></g><g id="F"><use transform="matrix(0.05,0,0,0.05,0,0)" xlink:href="#at"/><use transform="matrix(0.05,0,0,0.05,10,0)" xlink:href="#aX"/><use transform="matrix(0.05,0,0,0.05,20,0)" xlink:href="#aX"/><use transform="matrix(0.05,0,0,0.05,30,0)" xlink:href="#av"/><use transform="matrix(0.05,0,0,0.05,33.95,0)" xlink:href="#au"/><use transform="matrix(0.05,0,0,0.05,37.900000000000006,0)" xlink:href="#aY"/><use transform="matrix(0.05,0,0,0.05,46.900000000000006,0)" xlink:href="#at"/><use transform="matrix(0.05,0,0,0.05,56.900000000000006,0)" xlink:href="#ax"/><use transform="matrix(0.05,0,0,0.05,61.900000000000006,0)" xlink:href="#au"/><use transform="matrix(0.05,0,0,0.05,65.85000000000001,0)" xlink:href="#aA"/><use transform="matrix(0.05,0,0,0.05,75.85000000000001,0)" xlink:href="#aB"/></g><path d="M85-194c31 0 48 13 60 33l-1-100h32l1 261h-30c-2-10 0-23-3-31C134-8 116 4 85 4 32 4 16-35 15-94c0-66 23-100 70-100zm9 24c-40 0-46 34-46 75 0 40 6 74 45 74 42 0 51-32 51-76 0-42-9-74-50-73" id="bm"/><g id="G"><use transform="matrix(0.05,0,0,0.05,0,0)" xlink:href="#aY"/><use transform="matrix(0.05,0,0,0.05,9,0)" xlink:href="#aA"/><use transform="matrix(0.05,0,0,0.05,19,0)" xlink:href="#bm"/><use transform="matrix(0.05,0,0,0.05,29,0)" xlink:href="#aC"/></g><path d="M137 0h-34L2-248h35l83 218 83-218h36" id="bn"/><path d="M30-248c87 1 191-15 191 75 0 78-77 80-158 76V0H30v-248zm33 125c57 0 124 11 124-50 0-59-68-47-124-48v98" id="bo"/><path d="M212-179c-10-28-35-45-73-45-59 0-87 40-87 99 0 60 29 101 89 101 43 0 62-24 78-52l27 14C228-24 195 4 139 4 59 4 22-46 18-125c-6-104 99-153 187-111 19 9 31 26 39 46" id="bp"/><g id="H"><use transform="matrix(0.05,0,0,0.05,0,0)" xlink:href="#bn"/><use transform="matrix(0.05,0,0,0.05,12,0)" xlink:href="#bo"/><use transform="matrix(0.05,0,0,0.05,24,0)" xlink:href="#bp"/></g><path d="M190 0L58-211 59 0H30v-248h39L202-35l-2-213h31V0h-41" id="bq"/><path d="M127-220V0H93v-220H8v-28h204v28h-85" id="br"/><g id="I"><use transform="matrix(0.05,0,0,0.05,0,0)" xlink:href="#bq"/><use transform="matrix(0.05,0,0,0.05,12.950000000000001,0)" xlink:href="#ar"/><use transform="matrix(0.05,0,0,0.05,23.6,0)" xlink:href="#br"/></g><g id="J"><use transform="matrix(0.05,0,0,0.05,0,0)" xlink:href="#bf"/><use transform="matrix(0.05,0,0,0.05,10,0)" xlink:href="#at"/><use transform="matrix(0.05,0,0,0.05,20,0)" xlink:href="#ax"/><use transform="matrix(0.05,0,0,0.05,25,0)" xlink:href="#aC"/><use transform="matrix(0.05,0,0,0.05,35,0)" xlink:href="#bj"/><use transform="matrix(0.05,0,0,0.05,47.95,0)" xlink:href="#at"/><use transform="matrix(0.05,0,0,0.05,57.95,0)" xlink:href="#ay"/></g><g id="K"><use transform="matrix(0.05,0,0,0.05,0,0)" xlink:href="#bo"/><use transform="matrix(0.05,0,0,0.05,12,0)" xlink:href="#aA"/><use transform="matrix(0.05,0,0,0.05,22,0)" xlink:href="#ba"/><use transform="matrix(0.05,0,0,0.05,27.950000000000003,0)" xlink:href="#ax"/></g><path d="M134-131c28 9 52 24 51 62-1 50-34 73-85 73S17-19 16-69c0-36 21-54 49-61-75-25-45-126 34-121 46 3 78 18 79 63 0 33-17 51-44 57zm-34-11c31 1 46-15 46-44 0-28-17-43-47-42-29 0-46 13-45 42 1 28 16 44 46 44zm1 122c35 0 51-18 51-52 0-30-18-46-53-46-33 0-51 17-51 47 0 34 19 51 53 51" id="bs"/><path d="M101-251c68 0 85 55 85 127S166 4 100 4C33 4 14-52 14-124c0-73 17-127 87-127zm-1 229c47 0 54-49 54-102s-4-102-53-102c-51 0-55 48-55 102 0 53 5 102 54 102" id="bt"/><g id="L"><use transform="matrix(0.05,0,0,0.05,0,0)" xlink:href="#bs"/><use transform="matrix(0.05,0,0,0.05,10,0)" xlink:href="#bt"/></g><g id="M"><use transform="matrix(0.05,0,0,0.05,0,0)" xlink:href="#bp"/><use transform="matrix(0.05,0,0,0.05,12.950000000000001,0)" xlink:href="#av"/><use transform="matrix(0.05,0,0,0.05,16.900000000000002,0)" xlink:href="#at"/><use transform="matrix(0.05,0,0,0.05,26.900000000000002,0)" xlink:href="#aZ"/><use transform="matrix(0.05,0,0,0.05,35.900000000000006,0)" xlink:href="#aZ"/><use transform="matrix(0.05,0,0,0.05,44.900000000000006,0)" xlink:href="#au"/><use transform="matrix(0.05,0,0,0.05,48.85000000000001,0)" xlink:href="#aY"/></g><path d="M30 0v-248h33v221h125V0H30" id="bu"/><g id="N"><use transform="matrix(0.05,0,0,0.05,0,0)" xlink:href="#bu"/><use transform="matrix(0.05,0,0,0.05,10,0)" xlink:href="#aA"/><use transform="matrix(0.05,0,0,0.05,20,0)" xlink:href="#at"/><use transform="matrix(0.05,0,0,0.05,30,0)" xlink:href="#bm"/></g><path d="M160-131c35 5 61 23 61 61C221 17 115-2 30 0v-248c76 3 177-17 177 60 0 33-19 50-47 57zm-97-11c50-1 110 9 110-42 0-47-63-36-110-37v79zm0 115c55-2 124 14 124-45 0-56-70-42-124-44v89" id="bv"/><g id="O"><use transform="matrix(0.05,0,0,0.05,0,0)" xlink:href="#bv"/><use transform="matrix(0.05,0,0,0.05,12,0)" xlink:href="#at"/><use transform="matrix(0.05,0,0,0.05,22,0)" xlink:href="#av"/><use transform="matrix(0.05,0,0,0.05,25.950000000000003,0)" xlink:href="#at"/><use transform="matrix(0.05,0,0,0.05,35.95,0)" xlink:href="#aB"/><use transform="matrix(0.05,0,0,0.05,45.95,0)" xlink:href="#aY"/><use transform="matrix(0.05,0,0,0.05,54.95,0)" xlink:href="#aC"/><use transform="matrix(0.05,0,0,0.05,64.95,0)" xlink:href="#ba"/></g><g id="P"><use transform="matrix(0.05,0,0,0.05,0,0)" xlink:href="#bg"/><use transform="matrix(0.05,0,0,0.05,5,0)" xlink:href="#aB"/><use transform="matrix(0.05,0,0,0.05,15,0)" xlink:href="#ax"/><use transform="matrix(0.05,0,0,0.05,20,0)" xlink:href="#aC"/><use transform="matrix(0.05,0,0,0.05,30,0)" xlink:href="#ba"/><use transform="matrix(0.05,0,0,0.05,35.95,0)" xlink:href="#aB"/><use transform="matrix(0.05,0,0,0.05,45.95,0)" xlink:href="#aC"/><use transform="matrix(0.05,0,0,0.05,55.95,0)" xlink:href="#ax"/></g><path d="M143 4C61 4 22-44 18-125c-5-107 100-154 193-111 17 8 29 25 37 43l-32 9c-13-25-37-40-76-40-61 0-88 39-88 99 0 61 29 100 91 101 35 0 62-11 79-27v-45h-74v-28h105v86C228-13 192 4 143 4" id="bw"/><g id="Q"><use transform="matrix(0.05,0,0,0.05,0,0)" xlink:href="#bw"/><use transform="matrix(0.05,0,0,0.05,14,0)" xlink:href="#at"/><use transform="matrix(0.05,0,0,0.05,24,0)" xlink:href="#ax"/><use transform="matrix(0.05,0,0,0.05,29,0)" xlink:href="#aC"/><use transform="matrix(0.05,0,0,0.05,39,0)" xlink:href="#bj"/><use transform="matrix(0.05,0,0,0.05,51.95,0)" xlink:href="#at"/><use transform="matrix(0.05,0,0,0.05,61.95,0)" xlink:href="#ay"/></g><g id="R"><use transform="matrix(0.05,0,0,0.05,0,0)" xlink:href="#bd"/><use transform="matrix(0.05,0,0,0.05,10,0)" xlink:href="#aZ"/><use transform="matrix(0.05,0,0,0.05,19,0)" xlink:href="#aC"/><use transform="matrix(0.05,0,0,0.05,29,0)" xlink:href="#ba"/><use transform="matrix(0.05,0,0,0.05,34.95,0)" xlink:href="#aZ"/></g><g id="S"><use transform="matrix(0.05,0,0,0.05,0,0)" xlink:href="#bv"/><use transform="matrix(0.05,0,0,0.05,12,0)" xlink:href="#at"/><use transform="matrix(0.05,0,0,0.05,22,0)" xlink:href="#aZ"/><use transform="matrix(0.05,0,0,0.05,31,0)" xlink:href="#ax"/><use transform="matrix(0.05,0,0,0.05,36,0)" xlink:href="#au"/><use transform="matrix(0.05,0,0,0.05,39.95,0)" xlink:href="#aA"/><use transform="matrix(0.05,0,0,0.05,49.95,0)" xlink:href="#aB"/></g><g id="T"><use transform="matrix(0.05,0,0,0.05,0,0)" xlink:href="#aE"/><use transform="matrix(0.05,0,0,0.05,10,0)" xlink:href="#aE"/></g><path d="M197 0v-115H63V0H30v-248h33v105h134v-105h34V0h-34" id="bx"/><g id="U"><use transform="matrix(0.05,0,0,0.05,0,0)" xlink:href="#be"/><use transform="matrix(0.05,0,0,0.05,12,0)" xlink:href="#be"/><use transform="matrix(0.05,0,0,0.05,24,0)" xlink:href="#bx"/></g><g id="V"><use transform="matrix(0.05,0,0,0.05,0,0)" xlink:href="#av"/><use transform="matrix(0.05,0,0,0.05,3.95,0)" xlink:href="#aA"/><use transform="matrix(0.05,0,0,0.05,13.949999999999998,0)" xlink:href="#aY"/><use transform="matrix(0.05,0,0,0.05,22.95,0)" xlink:href="#at"/><use transform="matrix(0.05,0,0,0.05,32.95,0)" xlink:href="#av"/></g></defs></g></svg>